<svg width="17" height="20" viewBox="0 0 17 20" fill="none" xmlns="http://www.w3.org/2000/svg">
<path fill-rule="evenodd" clip-rule="evenodd" d="M0.75 3V2.6893L0.9697 2.4697L1.5 3C0.9697 2.4697 0.9694 2.47 0.9697 2.4697L0.9711 2.4683L0.9726 2.4667L0.9764 2.463L0.9861 2.4536C0.9937 2.4463 1.0033 2.4372 1.015 2.4264C1.0384 2.4049 1.0701 2.3764 1.1105 2.3422C1.1912 2.2737 1.3064 2.1818 1.4581 2.0748C1.7616 1.86052 2.2105 1.58569 2.8204 1.31464C4.0428 0.77135 5.8967 0.25 8.5 0.25C11.1033 0.25 12.9572 0.77135 14.1796 1.31464C14.7895 1.58569 15.2384 1.86052 15.5419 2.0748C15.6936 2.1818 15.8088 2.2737 15.8895 2.3422C15.9299 2.3764 15.9616 2.4049 15.985 2.4264C15.9967 2.4372 16.0063 2.4463 16.0139 2.4536L16.0236 2.463L16.0274 2.4667L16.0289 2.4683L16.0297 2.469C16.03 2.4693 16.0303 2.4697 15.5 3L16.0297 2.469L16.25 2.6893V3V3.0012V3.0023V3.0034V3.0047V3.0057V3.0068V3.008V3.0093V3.0107V3.0122V3.0138V3.0155V3.0173V3.0183V3.0193V3.0213V3.0234V3.0245V3.0257V3.0268V3.028V3.0292V3.0305V3.0317V3.033V3.0344V3.0357V3.0371V3.0385V3.0399V3.0414V3.0429V3.0444V3.046V3.0475V3.0491V3.0508V3.0524V3.0541V3.0559V3.0576V3.0594V3.0612V3.063V3.0649V3.0668V3.0687V3.0707V3.0726V3.0747V3.0767V3.0788V3.0809V3.083V3.0852V3.0874V3.0896V3.0918V3.0941V3.0964V3.0988V3.1012V3.1036V3.106V3.1085V3.111V3.1135V3.1161V3.1187V3.1213V3.1239V3.1266V3.1293V3.1321V3.1349V3.1377V3.1405V3.1434V3.1463V3.1493V3.1523V3.1553V3.1583V3.1614V3.1645V3.1676V3.1708V3.174V3.1773V3.1805V3.1838V3.1872V3.1905V3.194V3.1974V3.2009V3.2044V3.2079V3.2115V3.2151V3.2188V3.2224V3.2261V3.2299V3.2337V3.2375V3.2413V3.2452V3.2492V3.2531V3.2571V3.2611V3.2652V3.2693V3.2734V3.2776V3.2818V3.286V3.2903V3.2946V3.299V3.3034V3.3078V3.3122V3.3167V3.3213V3.3258V3.3304V3.3351V3.3398V3.3445V3.3492V3.354V3.3588V3.3637V3.3686V3.3735V3.3785V3.3835V3.3886V3.3937V3.3988V3.4039V3.4091V3.4144V3.4197V3.425V3.4303V3.4357V3.4412V3.4466V3.4521V3.4577V3.4633V3.4689V3.4746V3.4803V3.486V3.4918V3.4976V3.5035V3.5094V3.5153V3.5213V3.5273V3.5334V3.5395V3.5457V3.5518V3.5581V3.5643V3.5706V3.577V3.5834V3.5898V3.5963V3.6028V3.6093V3.6159V3.6225V3.6292V3.6359V3.6427V3.6495V3.6563V3.6632V3.6701V3.6771V3.6841V3.6912V3.6982V3.7054V3.7126V3.7198V3.727V3.7344V3.7417V3.7491V3.7565V3.764V3.7715V3.7791V3.7867V3.7943V3.802V3.8098V3.8176V3.8254V3.8333V3.8412V3.8491V3.8571V3.8652V3.8733V3.8814V3.8896V3.8978V3.9061V3.9144V3.9227V3.9311V3.9396V3.9481V3.9566V3.9652V3.9738V3.9825V3.9912V4V4.0088V4.0177V4.0266V4.0355V4.0445V4.0536V4.0626V4.0718V4.081V4.0902V4.0995V4.1088V4.1182V4.1276V4.137V4.1465V4.1561V4.1657V4.1754V4.1851V4.1948V4.2046V4.2144V4.2243V4.2343V4.2442V4.2543V4.2644V4.2745V4.2847V4.2949V4.3052V4.3155V4.3259V4.3363V4.3468V4.3573V4.3679V4.3785V4.3891V4.3999V4.4106V4.4214V4.4323V4.4432V4.4542V4.4652V4.4763V4.4874V4.4985V4.5098V4.521V4.5323V4.5437V4.5551V4.5666V4.5781V4.5897V4.6013V4.613V4.6247V4.6365V4.6483V4.6602V4.6721V4.6841V4.6961V4.7082V4.7203V4.7325V4.7447V4.757V4.7694V4.7818V4.7942V4.8067V4.8193V4.8319V4.8445V4.8572V4.87V4.8828V4.8957V4.9086V4.9216V4.9346V4.9477V4.9608V4.974V4.9873V5.0006V5.0139V5.0273V5.0408V5.0543V5.0679V5.0815V5.0952V5.1089V5.1227V5.1365V5.1504V5.1644V5.1784V5.1924V5.2066V5.2207V5.235V5.2492V5.2636V5.278V5.2924V5.3069V5.3215V5.3361V5.3508V5.3655V5.3803V5.3951V5.41V5.425V5.44V5.4551V5.4702V5.4854V5.5006V5.5159V5.5312V5.5467V5.5621V5.5777V5.5932V5.6089V5.6246V5.6403V5.6561V5.672V5.6879V5.7039V5.72V5.7361V5.7522V5.7685V5.7847V5.8011V5.8175V5.8339V5.8504V5.867V5.8836V5.9003V5.9171V5.9339V5.9508V5.9677V5.9847V6.0017V6.0188V6.036V6.0532V6.0705V6.0879V6.1053V6.1227V6.1403V6.1579V6.1755V6.1932V6.211V6.2288V6.2467V6.2647V6.2827V6.3008V6.3189V6.3371V6.3554V6.3737V6.3921V6.4105V6.429V6.4476V6.4662V6.4849V6.5037V6.5225V6.5414V6.5603V6.5793V6.5984V6.6175V6.6367V6.656V6.6753V6.6947V6.7141V6.7336V6.7532V6.7728V6.7925V6.8123V6.8321V6.852V6.872V6.892V6.9121V6.9322V6.9525V6.9727V6.9931V7.0135V7.0339V7.0545V7.0751V7.0957V7.1165V7.1373V7.1581V7.1791V7.2V7.2211V7.2422V7.2634V7.2847V7.306V7.3274V7.3488V7.3703V7.3919V7.4136V7.4353V7.4571V7.4789V7.5008V7.5228V7.5449V7.567V7.5892V7.6114V7.6337V7.6561V7.6786V7.7011V7.7237V7.7463V7.769V7.7918V7.8147V7.8376V7.8606V7.8837V7.9068V7.93V7.9533V7.9766V8C16.25 12.2439 14.3856 15.1751 12.5303 17.0303C11.6058 17.9548 10.6824 18.6144 9.9885 19.0439C9.641 19.2591 9.3494 19.4175 9.1416 19.5235C9.0377 19.5766 8.9546 19.6165 8.8958 19.644C8.8664 19.6577 8.843 19.6683 8.8261 19.6759L8.8058 19.6849L8.7993 19.6877L8.7971 19.6887C8.7967 19.6889 8.7954 19.6894 8.5 19C8.2046 19.6894 8.2042 19.6892 8.2038 19.689L8.2007 19.6877L8.1942 19.6849L8.1739 19.6759C8.157 19.6683 8.1336 19.6577 8.1042 19.644C8.0454 19.6165 7.9623 19.5766 7.8584 19.5235C7.6506 19.4175 7.359 19.2591 7.0115 19.0439C6.3176 18.6144 5.3942 17.9548 4.4697 17.0303C2.6144 15.1751 0.75 12.2439 0.75 8V7.9766V7.9533V7.93V7.9068V7.8837V7.8606V7.8376V7.8147V7.7918V7.769V7.7463V7.7237V7.7011V7.6786V7.6561V7.6337V7.6114V7.5892V7.567V7.5449V7.5228V7.5008V7.4789V7.4571V7.4353V7.4136V7.3919V7.3703V7.3488V7.3274V7.306V7.2847V7.2634V7.2422V7.2211V7.2V7.1791V7.1581V7.1373V7.1165V7.0957V7.0751V7.0545V7.0339V7.0135V6.9931V6.9727V6.9525V6.9322V6.9121V6.892V6.872V6.852V6.8321V6.8123V6.7925V6.7728V6.7532V6.7336V6.7141V6.6947V6.6753V6.656V6.6367V6.6175V6.5984V6.5793V6.5603V6.5414V6.5225V6.5037V6.4849V6.4662V6.4476V6.429V6.4105V6.3921V6.3737V6.3554V6.3371V6.3189V6.3008V6.2827V6.2647V6.2467V6.2288V6.211V6.1932V6.1755V6.1579V6.1403V6.1227V6.1053V6.0879V6.0705V6.0532V6.036V6.0188V6.0017V5.9847V5.9677V5.9508V5.9339V5.9171V5.9003V5.8836V5.867V5.8504V5.8339V5.8175V5.8011V5.7847V5.7685V5.7522V5.7361V5.72V5.7039V5.6879V5.672V5.6561V5.6403V5.6246V5.6089V5.5932V5.5777V5.5621V5.5467V5.5312V5.5159V5.5006V5.4854V5.4702V5.4551V5.44V5.425V5.41V5.3951V5.3803V5.3655V5.3508V5.3361V5.3215V5.3069V5.2924V5.278V5.2636V5.2492V5.235V5.2207V5.2066V5.1924V5.1784V5.1644V5.1504V5.1365V5.1227V5.1089V5.0952V5.0815V5.0679V5.0543V5.0408V5.0273V5.0139V5.0006V4.9873V4.974V4.9608V4.9477V4.9346V4.9216V4.9086V4.8957V4.8828V4.87V4.8572V4.8445V4.8319V4.8193V4.8067V4.7942V4.7818V4.7694V4.757V4.7447V4.7325V4.7203V4.7082V4.6961V4.6841V4.6721V4.6602V4.6483V4.6365V4.6247V4.613V4.6013V4.5897V4.5781V4.5666V4.5551V4.5437V4.5323V4.521V4.5098V4.4985V4.4874V4.4763V4.4652V4.4542V4.4432V4.4323V4.4214V4.4106V4.3999V4.3891V4.3785V4.3679V4.3573V4.3468V4.3363V4.3259V4.3155V4.3052V4.2949V4.2847V4.2745V4.2644V4.2543V4.2442V4.2343V4.2243V4.2144V4.2046V4.1948V4.1851V4.1754V4.1657V4.1561V4.1465V4.137V4.1276V4.1182V4.1088V4.0995V4.0902V4.081V4.0718V4.0626V4.0536V4.0445V4.0355V4.0266V4.0177V4.0088V4V3.9912V3.9825V3.9738V3.9652V3.9566V3.9481V3.9396V3.9311V3.9227V3.9144V3.9061V3.8978V3.8896V3.8814V3.8733V3.8652V3.8571V3.8491V3.8412V3.8333V3.8254V3.8176V3.8098V3.802V3.7943V3.7867V3.7791V3.7715V3.764V3.7565V3.7491V3.7417V3.7344V3.727V3.7198V3.7126V3.7054V3.6982V3.6912V3.6841V3.6771V3.6701V3.6632V3.6563V3.6495V3.6427V3.6359V3.6292V3.6225V3.6159V3.6093V3.6028V3.5963V3.5898V3.5834V3.577V3.5706V3.5643V3.5581V3.5518V3.5457V3.5395V3.5334V3.5273V3.5213V3.5153V3.5094V3.5035V3.4976V3.4918V3.486V3.4803V3.4746V3.4689V3.4633V3.4577V3.4521V3.4466V3.4412V3.4357V3.4303V3.425V3.4197V3.4144V3.4091V3.4039V3.3988V3.3937V3.3886V3.3835V3.3785V3.3735V3.3686V3.3637V3.3588V3.354V3.3492V3.3445V3.3398V3.3351V3.3304V3.3258V3.3213V3.3167V3.3122V3.3078V3.3034V3.299V3.2946V3.2903V3.286V3.2818V3.2776V3.2734V3.2693V3.2652V3.2611V3.2571V3.2531V3.2492V3.2452V3.2413V3.2375V3.2337V3.2299V3.2261V3.2224V3.2188V3.2151V3.2115V3.2079V3.2044V3.2009V3.1974V3.194V3.1905V3.1872V3.1838V3.1805V3.1773V3.174V3.1708V3.1676V3.1645V3.1614V3.1583V3.1553V3.1523V3.1493V3.1463V3.1434V3.1405V3.1377V3.1349V3.1321V3.1293V3.1266V3.1239V3.1213V3.1187V3.1161V3.1135V3.111V3.1085V3.106V3.1036V3.1012V3.0988V3.0964V3.0941V3.0918V3.0896V3.0874V3.0852V3.083V3.0809V3.0788V3.0767V3.0747V3.0726V3.0707V3.0687V3.0668V3.0649V3.063V3.0612V3.0594V3.0576V3.0559V3.0541V3.0524V3.0508V3.0491V3.0475V3.046V3.0444V3.0429V3.0414V3.0399V3.0385V3.0371V3.0357V3.0344V3.033V3.0317V3.0305V3.0292V3.028V3.0268V3.0257V3.0245V3.0234V3.0223V3.0203V3.0183V3.0173V3.0155V3.0138V3.0122V3.0107V3.0093V3.008V3.0068V3.0057V3.0047V3.0034V3.0023V3.0012V3ZM8.5 19L8.7954 19.6894L8.5 19.816L8.2038 19.689L8.5 19ZM14.6769 3.3002C14.703 3.3187 14.7274 3.3363 14.75 3.353V3.354V3.3588V3.3637V3.3686V3.3735V3.3785V3.3835V3.3886V3.3937V3.3988V3.4039V3.4091V3.4144V3.4197V3.425V3.4303V3.4357V3.4412V3.4466V3.4521V3.4577V3.4633V3.4689V3.4746V3.4803V3.486V3.4918V3.4976V3.5035V3.5094V3.5153V3.5213V3.5273V3.5334V3.5395V3.5457V3.5518V3.5581V3.5643V3.5706V3.577V3.5834V3.5898V3.5963V3.6028V3.6093V3.6159V3.6225V3.6292V3.6359V3.6427V3.6495V3.6563V3.6632V3.6701V3.6771V3.6841V3.6912V3.6982V3.7054V3.7126V3.7198V3.727V3.7344V3.7417V3.7491V3.7565V3.764V3.7715V3.7791V3.7867V3.7943V3.802V3.8098V3.8176V3.8254V3.8333V3.8412V3.8491V3.8571V3.8652V3.8733V3.8814V3.8896V3.8978V3.9061V3.9144V3.9227V3.9311V3.9396V3.9481V3.9566V3.9652V3.9738V3.9825V3.9912V4V4.0088V4.0177V4.0266V4.0355V4.0445V4.0536V4.0626V4.0718V4.081V4.0902V4.0995V4.1088V4.1182V4.1276V4.137V4.1465V4.1561V4.1657V4.1754V4.1851V4.1948V4.2046V4.2144V4.2243V4.2343V4.2442V4.2543V4.2644V4.2745V4.2847V4.2949V4.3052V4.3155V4.3259V4.3363V4.3468V4.3573V4.3679V4.3785V4.3891V4.3999V4.4106V4.4214V4.4323V4.4432V4.4542V4.4652V4.4763V4.4874V4.4985V4.5098V4.521V4.5323V4.5437V4.5551V4.5666V4.5781V4.5897V4.6013V4.613V4.6247V4.6365V4.6483V4.6602V4.6721V4.6841V4.6961V4.7082V4.7203V4.7325V4.7447V4.757V4.7694V4.7818V4.7942V4.8067V4.8193V4.8319V4.8445V4.8572V4.87V4.8828V4.8957V4.9086V4.9216V4.9346V4.9477V4.9608V4.974V4.9873V5.0006V5.0139V5.0273V5.0408V5.0543V5.0679V5.0815V5.0952V5.1089V5.1227V5.1365V5.1504V5.1644V5.1784V5.1924V5.2066V5.2207V5.235V5.2492V5.2636V5.278V5.2924V5.3069V5.3215V5.3361V5.3508V5.3655V5.3803V5.3951V5.41V5.425V5.44V5.4551V5.4702V5.4854V5.5006V5.5159V5.5312V5.5467V5.5621V5.5777V5.5932V5.6089V5.6246V5.6403V5.6561V5.672V5.6879V5.7039V5.72V5.7361V5.7522V5.7685V5.7847V5.8011V5.8175V5.8339V5.8504V5.867V5.8836V5.9003V5.9171V5.9339V5.9508V5.9677V5.9847V6.0017V6.0188V6.036V6.0532V6.0705V6.0879V6.1053V6.1227V6.1403V6.1579V6.1755V6.1932V6.211V6.2288V6.2467V6.2647V6.2827V6.3008V6.3189V6.3371V6.3554V6.3737V6.3921V6.4105V6.429V6.4476V6.4662V6.4849V6.5037V6.5225V6.5414V6.5603V6.5793V6.5984V6.6175V6.6367V6.656V6.6753V6.6947V6.7141V6.7336V6.7532V6.7728V6.7925V6.8123V6.8321V6.852V6.872V6.892V6.9121V6.9322V6.9525V6.9727V6.9931V7.0135V7.0339V7.0545V7.0751V7.0957V7.1165V7.1373V7.1581V7.1791V7.2V7.2211V7.2422V7.2634V7.2847V7.306V7.3274V7.3488V7.3703V7.3919V7.4136V7.4353V7.4571V7.4789V7.5008V7.5228V7.5449V7.567V7.5892V7.6114V7.6337V7.6561V7.6786V7.7011V7.7237V7.7463V7.769V7.7918V7.8147V7.8376V7.8606V7.8837V7.9068V7.93V7.9533V7.9766V8C14.75 11.7561 13.1144 14.3249 11.4697 15.9697C10.6442 16.7952 9.8176 17.3856 9.199 17.7686C8.913 17.9456 8.673 18.0774 8.5 18.1668C8.327 18.0774 8.087 17.9456 7.801 17.7686C7.1824 17.3856 6.3558 16.7952 5.5303 15.9697C3.8856 14.3249 2.25 11.7561 2.25 8V7.9766V7.9533V7.93V7.9068V7.8837V7.8606V7.8376V7.8147V7.7918V7.769V7.7463V7.7237V7.7011V7.6786V7.6561V7.6337V7.6114V7.5892V7.567V7.5449V7.5228V7.5008V7.4789V7.4571V7.4353V7.4136V7.3919V7.3703V7.3488V7.3274V7.306V7.2847V7.2634V7.2422V7.2211V7.2V7.1791V7.1581V7.1373V7.1165V7.0957V7.0751V7.0545V7.0339V7.0135V6.9931V6.9727V6.9525V6.9322V6.9121V6.892V6.872V6.852V6.8321V6.8123V6.7925V6.7728V6.7532V6.7336V6.7141V6.6947V6.6753V6.656V6.6367V6.6175V6.5984V6.5793V6.5603V6.5414V6.5225V6.5037V6.4849V6.4662V6.4476V6.429V6.4105V6.3921V6.3737V6.3554V6.3371V6.3189V6.3008V6.2827V6.2647V6.2467V6.2288V6.211V6.1932V6.1755V6.1579V6.1403V6.1227V6.1053V6.0879V6.0705V6.0532V6.036V6.0188V6.0017V5.9847V5.9677V5.9508V5.9339V5.9171V5.9003V5.8836V5.867V5.8504V5.8339V5.8175V5.8011V5.7847V5.7685V5.7522V5.7361V5.72V5.7039V5.6879V5.672V5.6561V5.6403V5.6246V5.6089V5.5932V5.5777V5.5621V5.5467V5.5312V5.5159V5.5006V5.4854V5.4702V5.4551V5.44V5.425V5.41V5.3951V5.3803V5.3655V5.3508V5.3361V5.3215V5.3069V5.2924V5.278V5.2636V5.2492V5.235V5.2207V5.2066V5.1924V5.1784V5.1644V5.1504V5.1365V5.1227V5.1089V5.0952V5.0815V5.0679V5.0543V5.0408V5.0273V5.0139V5.0006V4.9873V4.974V4.9608V4.9477V4.9346V4.9216V4.9086V4.8957V4.8828V4.87V4.8572V4.8445V4.8319V4.8193V4.8067V4.7942V4.7818V4.7694V4.757V4.7447V4.7325V4.7203V4.7082V4.6961V4.6841V4.6721V4.6602V4.6483V4.6365V4.6247V4.613V4.6013V4.5897V4.5781V4.5666V4.5551V4.5437V4.5323V4.521V4.5098V4.4985V4.4874V4.4763V4.4652V4.4542V4.4432V4.4323V4.4214V4.4106V4.3999V4.3891V4.3785V4.3679V4.3573V4.3468V4.3363V4.3259V4.3155V4.3052V4.2949V4.2847V4.2745V4.2644V4.2543V4.2442V4.2343V4.2243V4.2144V4.2046V4.1948V4.1851V4.1754V4.1657V4.1561V4.1465V4.137V4.1276V4.1182V4.1088V4.0995V4.0902V4.081V4.0718V4.0626V4.0536V4.0445V4.0355V4.0266V4.0177V4.0088V4V3.9912V3.9825V3.9738V3.9652V3.9566V3.9481V3.9396V3.9311V3.9227V3.9144V3.9061V3.8978V3.8896V3.8814V3.8733V3.8652V3.8571V3.8491V3.8412V3.8333V3.8254V3.8176V3.8098V3.802V3.7943V3.7867V3.7791V3.7715V3.764V3.7565V3.7491V3.7417V3.7344V3.727V3.7198V3.7126V3.7054V3.6982V3.6912V3.6841V3.6771V3.6701V3.6632V3.6563V3.6495V3.6427V3.6359V3.6292V3.6225V3.6159V3.6093V3.6028V3.5963V3.5898V3.5834V3.577V3.5706V3.5643V3.5581V3.5518V3.5457V3.5395V3.5334V3.5273V3.5213V3.5153V3.5094V3.5035V3.4976V3.4918V3.486V3.4803V3.4746V3.4689V3.4633V3.4577V3.4521V3.4466V3.4412V3.4357V3.4303V3.425V3.4197V3.4144V3.4091V3.4039V3.3988V3.3937V3.3886V3.3835V3.3785V3.3735V3.3686V3.3637V3.3588V3.354V3.353C2.2726 3.3363 2.297 3.3187 2.3231 3.3002C2.5509 3.1395 2.9145 2.9143 3.4296 2.6854C4.4572 2.2286 6.1033 1.75 8.5 1.75C10.8967 1.75 12.5428 2.2286 13.5704 2.6854C14.0855 2.9143 14.4491 3.1395 14.6769 3.3002ZM8.0303 11.5303L13.0303 6.5303L11.9697 5.4697L7.5 9.9393L5.0303 7.4697L3.9697 8.5303L6.9697 11.5303L7.5 12.0607L8.0303 11.5303Z" fill="#BB162B"/>
</svg>
